<svg xmlns="http://www.w3.org/2000/svg" version="1.1" xmlns:xlink="http://www.w3.org/1999/xlink" xmlns:svgjs="http://svgjs.com/svgjs" width="75" height="75"><svg width="75" height="75" viewBox="0 0 75 75" fill="none" xmlns="http://www.w3.org/2000/svg">
<path d="M63.6393 15.556C63.9219 15.8884 64.1961 16.2374 64.4704 16.5781C64.7446 16.9271 64.2626 16.3038 64.5368 16.6611C64.5867 16.7276 64.6449 16.8024 64.6947 16.8689C64.8526 17.0766 65.0105 17.2927 65.1601 17.5087C65.6754 18.2233 66.1574 18.9629 66.6227 19.7107C67.1047 20.5001 67.5618 21.3144 67.9773 22.1453C68.1768 22.5441 68.3762 22.943 68.5591 23.3418C68.6505 23.5413 68.7419 23.749 68.8333 23.9484C68.8665 24.0315 68.9081 24.1146 68.9413 24.1977C69.0161 24.3722 69.0078 24.3639 68.933 24.1728C68.958 24.2309 68.9829 24.2974 69.0078 24.3556C69.7059 26.059 70.2793 27.8207 70.7031 29.6154C70.9192 30.5295 71.102 31.4435 71.2433 32.3741C71.2765 32.5985 71.3098 32.8311 71.343 33.0555C71.2931 32.6816 71.3347 32.9973 71.343 33.097C71.3596 33.2134 71.3679 33.3297 71.3845 33.4377C71.4427 33.9446 71.4926 34.4515 71.5258 34.9666C71.6505 36.7033 71.6422 38.4482 71.5175 40.1766C71.4926 40.5422 71.4593 40.8995 71.4178 41.2651C71.4012 41.4562 71.3762 41.6474 71.3513 41.8385C71.343 41.9299 71.3264 42.0296 71.3181 42.121C71.2682 42.5198 71.3762 41.7305 71.3181 42.1293C71.2017 42.9187 71.0688 43.6998 70.9025 44.4726C70.5868 45.9683 70.1795 47.4473 69.6726 48.8849C69.5479 49.2339 69.4233 49.5829 69.2903 49.9236C69.2322 50.0814 69.174 50.231 69.1075 50.3889C69.0743 50.472 69.041 50.5634 69.0078 50.6465C68.9829 50.7129 68.9496 50.7794 68.9247 50.8542C68.9496 50.7877 68.9829 50.7213 69.0078 50.6631C68.9164 51.0038 68.7086 51.3528 68.559 51.6685C68.3928 52.0341 68.2183 52.3998 68.0355 52.7571C67.3623 54.0949 66.6061 55.3828 65.7751 56.6292C65.3595 57.2441 64.9191 57.8424 64.4703 58.4407C64.3291 58.6318 64.728 58.1166 64.4953 58.4075C64.4537 58.4656 64.4039 58.5238 64.3623 58.5819C64.246 58.7232 64.1379 58.8645 64.0216 59.0057C63.7723 59.3132 63.5147 59.6206 63.2487 59.9198C62.2681 61.0415 61.221 62.0968 60.1157 63.0857C59.5506 63.5925 58.9606 64.0745 58.3623 64.5481C58.2792 64.6146 58.1711 64.7559 58.4371 64.49C58.3706 64.5481 58.2875 64.598 58.221 64.6562C58.0797 64.7642 57.9301 64.8722 57.7805 64.9802C57.4731 65.2046 57.1656 65.4289 56.8498 65.645C55.6199 66.4925 54.3318 67.2569 53.0021 67.9466C52.3207 68.2956 51.6226 68.628 50.9162 68.9354C50.8497 68.9687 50.7832 68.9936 50.7167 69.0268C50.3594 69.1847 51.0658 68.8856 50.7084 69.0268C50.5339 69.0933 50.3677 69.1681 50.1932 69.2346C49.8525 69.3675 49.5034 69.5005 49.1544 69.6251C47.7167 70.1403 46.2457 70.5641 44.7582 70.8965C43.9853 71.071 43.2041 71.2122 42.423 71.3286C42.2983 71.3452 41.6751 71.42 42.1903 71.3618C41.9992 71.3784 41.808 71.4117 41.6252 71.4283C41.2263 71.4781 40.8274 71.5114 40.4202 71.5446C38.833 71.6776 37.2374 71.7025 35.65 71.6194C34.8605 71.5778 34.0793 71.5197 33.2981 71.4283C33.1153 71.4034 32.9075 71.4034 32.733 71.3618C33.2233 71.4948 32.6166 71.3452 32.5003 71.3286C32.1097 71.2704 31.7191 71.2039 31.3285 71.1291C29.7995 70.8466 28.2953 70.4644 26.8161 69.9824C26.1097 69.7498 25.4199 69.5005 24.7301 69.2346C24.5556 69.1681 24.3894 69.0933 24.2149 69.0268C23.8658 68.8856 24.4808 69.1432 24.2564 69.0435C24.1733 69.0019 24.0902 68.9687 24.0071 68.9354C23.6332 68.7776 23.2675 68.6031 22.9018 68.4286C21.5473 67.7804 20.2425 67.0575 18.9794 66.2432C18.3645 65.8526 17.7661 65.4371 17.1761 65.0134C17.0265 64.9053 16.8853 64.7973 16.7357 64.6893C16.6526 64.6228 16.5529 64.5647 16.4781 64.4899C16.503 64.5148 16.7855 64.7308 16.5529 64.548C16.2371 64.2988 15.9296 64.0495 15.6221 63.7919C14.4836 62.8363 13.4032 61.8142 12.3894 60.7256C11.8825 60.1772 11.3922 59.6205 10.9185 59.0471C10.8188 58.9225 10.7107 58.7978 10.611 58.6649C10.5445 58.5818 10.4781 58.4904 10.4116 58.4073C10.2287 58.1829 10.4448 58.4572 10.4697 58.4821C10.1955 58.2079 9.97943 57.834 9.75506 57.5182C8.88247 56.305 8.09291 55.0336 7.37824 53.7208C7.02089 53.0644 6.68016 52.3913 6.36437 51.71C6.20647 51.3776 6.06519 51.0369 5.91562 50.7045C5.81589 50.4802 6.07352 51.0951 5.93224 50.7461C5.90731 50.6796 5.87407 50.6131 5.84913 50.5383C5.76603 50.3306 5.68292 50.1312 5.60814 49.9234C5.05965 48.5025 4.60258 47.0484 4.24523 45.561C4.0541 44.7965 3.89619 44.0154 3.76323 43.2426C3.70506 42.8853 3.64688 42.528 3.59701 42.179C3.58039 42.0544 3.49729 41.8217 3.60532 42.2289C3.58039 42.1375 3.58039 42.0378 3.57208 41.9463C3.54715 41.7386 3.52222 41.5309 3.49729 41.3231C3.33108 39.7443 3.26461 38.1572 3.30615 36.5702C3.33108 35.7559 3.37264 34.9498 3.44743 34.1438C3.48067 33.7616 3.52222 33.3793 3.57208 33.0054C3.58039 32.9306 3.59702 32.8558 3.60533 32.781C3.55546 33.263 3.59702 32.8641 3.60533 32.7727C3.63026 32.5816 3.6635 32.3988 3.68843 32.2077C3.93774 30.6705 4.28678 29.1498 4.73553 27.6541C4.9516 26.9228 5.1926 26.2082 5.45853 25.4936C5.58319 25.1446 5.72446 24.8039 5.85743 24.4632C5.88236 24.3967 5.9156 24.3303 5.94053 24.2555C6.09012 23.8982 5.79094 24.6045 5.94053 24.2472C6.02363 24.0644 6.09843 23.8733 6.18152 23.6904C6.80481 22.3028 7.51118 20.9567 8.30897 19.6686C8.69125 19.0454 9.09014 18.4388 9.50567 17.8406C9.71343 17.5415 9.9295 17.2506 10.1456 16.9598C10.2536 16.8185 10.3533 16.6524 10.478 16.5277C10.212 16.8019 10.3533 16.6856 10.4198 16.6025C10.5112 16.4861 10.6026 16.3781 10.694 16.2618C11.6248 15.1068 12.6303 14.0016 13.6941 12.9629C14.2176 12.4561 14.7495 11.9658 15.298 11.4922C15.5722 11.2595 15.8548 11.0268 16.1373 10.7942C16.2786 10.6778 16.4199 10.5698 16.5612 10.4535C16.852 10.2208 16.3285 10.6197 16.5279 10.4784C16.6277 10.4036 16.7274 10.3205 16.8354 10.2458C18.0321 9.34834 19.2786 8.52575 20.575 7.78609C21.2066 7.42048 21.8548 7.07979 22.5113 6.75572C22.8437 6.59784 23.1761 6.43997 23.5085 6.28209C23.6748 6.2073 23.841 6.13251 24.0155 6.05773C24.1152 6.01618 24.2149 5.9497 24.3229 5.92477C24.2565 5.9497 24.19 5.98294 24.1318 6.00787C24.1983 5.98294 24.2648 5.9497 24.3396 5.92477C25.744 5.35143 27.19 4.86117 28.661 4.47063C29.4006 4.2712 30.1569 4.09671 30.9049 3.94713C31.2539 3.88066 31.6113 3.81418 31.9603 3.75602C32.1431 3.72278 32.3342 3.69785 32.5254 3.66462C32.6417 3.648 32.7498 3.63138 32.8661 3.61476C33.265 3.55659 32.4755 3.66462 32.8744 3.61476C34.4035 3.42364 35.9492 3.32392 37.495 3.32392L35.8328 1.66196V4.60344V11.6748V20.2751V27.6788C35.8328 28.8754 35.7996 30.0803 35.8328 31.2769V31.3267C35.8328 32.1992 36.5973 33.0302 37.495 32.9887C38.3926 32.9472 39.1571 32.2575 39.1571 31.3267V28.3853V21.3139V12.7136V5.30985C39.1571 4.11329 39.1903 2.90838 39.1571 1.71182V1.66196C39.1571 0.764551 38.3926 0 37.495 0C30.9298 0.00830935 24.4145 1.73672 18.7308 5.02721C13.2627 8.19312 8.62545 12.7549 5.35951 18.1644C1.98553 23.7484 0.140574 30.2131 0.00760862 36.7365C-0.125357 43.2926 1.48686 49.8488 4.65305 55.5988C7.7029 61.1329 12.1822 65.8526 17.5174 69.2346C23.0354 72.7328 29.4594 74.6939 35.9837 74.968C42.5405 75.2422 49.114 73.7465 54.9226 70.7136C60.5237 67.7803 65.3272 63.3929 68.8176 58.1331C72.4242 52.6987 74.5102 46.3338 74.9256 39.836C75.4159 32.1582 73.4713 24.3469 69.4158 17.8072C68.4103 16.1869 67.28 14.6579 66.0502 13.2038C65.4851 12.539 64.2718 12.5806 63.6983 13.2038C62.9919 13.9101 63.0418 14.8407 63.6401 15.5554L63.6393 15.556Z" fill="#4F46E5"></path>
<path d="M52.8022 24.7122C52.9684 24.9116 53.1346 25.1193 53.3008 25.3187C53.0515 25.003 53.3258 25.3437 53.359 25.4018C53.4338 25.5099 53.5169 25.6096 53.5917 25.7176C53.9241 26.1829 54.2399 26.6566 54.5307 27.1468C54.805 27.5955 55.0626 28.0608 55.3036 28.5345C55.42 28.7671 55.5363 29.0081 55.6526 29.2491C55.7108 29.3654 55.7607 29.4901 55.8189 29.6147C55.8521 29.6978 55.8937 29.7809 55.9269 29.8557C55.8438 29.6645 55.8438 29.6562 55.9103 29.8307C56.3009 30.8362 56.6416 31.8499 56.8909 32.897C57.0155 33.4288 57.1236 33.9606 57.215 34.5007C57.2399 34.6337 57.2649 34.7749 57.2732 34.9079C57.2316 34.4841 57.2732 34.9494 57.2815 35.0159C57.3147 35.34 57.348 35.6557 57.3729 35.9798C57.4477 37.0351 57.4477 38.0905 57.3646 39.1457C57.348 39.3784 57.323 39.6027 57.3064 39.8354C57.2981 39.9517 57.2815 40.0598 57.2649 40.1761C57.2316 40.4835 57.2815 40.1096 57.2815 40.0764C57.3064 40.2758 57.215 40.55 57.1734 40.7494C57.1319 41.007 57.082 41.2646 57.0238 41.5305C56.8327 42.4446 56.5834 43.342 56.2759 44.2228C56.2011 44.4306 56.1263 44.6383 56.0432 44.846C56.0017 44.9457 55.9601 45.0538 55.9186 45.1535C55.8687 45.2698 55.8272 45.5773 55.9186 45.1618C55.8272 45.5939 55.5114 46.0675 55.3119 46.458C54.913 47.2391 54.4726 47.9953 53.9906 48.7182C53.8659 48.901 53.7413 49.0755 53.6166 49.2583C53.5169 49.3996 53.3756 49.6987 53.226 49.7818C53.2676 49.7236 53.3091 49.6738 53.3507 49.6156C53.3091 49.6738 53.2593 49.7319 53.2177 49.7901C53.1512 49.8732 53.0848 49.9563 53.01 50.0477C52.8521 50.2471 52.6859 50.4382 52.5196 50.6294C51.9462 51.2858 51.3313 51.9007 50.683 52.4823C50.3589 52.7731 50.0265 53.0557 49.6858 53.3216C49.6609 53.3465 49.6276 53.3631 49.6027 53.388C49.4614 53.4961 49.4864 53.4794 49.6775 53.3299C49.6359 53.3963 49.478 53.4794 49.4199 53.5293C49.2121 53.6789 49.0044 53.8284 48.7966 53.9697C48.0487 54.4849 47.2592 54.9502 46.4531 55.3657C46.0625 55.5651 45.6636 55.7562 45.2647 55.9307C45.2314 55.9473 45.1982 55.964 45.165 55.9723C44.9987 56.0471 45.032 56.0304 45.2564 55.9307C45.2231 55.964 45.0819 56.0055 45.0486 56.0138C44.8076 56.1135 44.5666 56.2049 44.3256 56.288C43.453 56.6038 42.5556 56.8614 41.6497 57.0608C41.2093 57.1605 40.7605 57.2436 40.3201 57.3101C40.2204 57.3267 40.0874 57.3682 39.9793 57.3599C40.3949 57.3932 40.1123 57.3433 39.971 57.3599C39.7051 57.3932 39.4392 57.4181 39.1732 57.4347C38.2425 57.5095 37.3117 57.5261 36.381 57.4763C35.9239 57.4513 35.4585 57.4181 35.0014 57.3682C34.91 57.3599 34.7355 57.3682 34.6607 57.3267C34.7355 57.335 34.802 57.3433 34.8768 57.3599C34.802 57.3516 34.7272 57.335 34.6524 57.3267C34.3948 57.2852 34.1289 57.2436 33.8712 57.1937C32.9571 57.0193 32.043 56.7949 31.1621 56.5041C30.7798 56.3794 30.3892 56.2382 30.0153 56.0969C29.9155 56.0553 29.8075 56.0138 29.7078 55.9723C29.3421 55.831 30.0568 56.1301 29.6995 55.9723C29.4668 55.8725 29.2341 55.7645 29.0014 55.6565C28.1787 55.266 27.3809 54.8173 26.608 54.327C26.2424 54.0943 25.885 53.845 25.5277 53.5874C25.4362 53.521 25.3531 53.4545 25.2617 53.3963C24.9542 53.172 25.5526 53.629 25.2534 53.388C25.0872 53.2551 24.9127 53.1138 24.7465 52.9809C24.0484 52.3992 23.3919 51.776 22.7769 51.1195C22.4777 50.8038 22.1952 50.4714 21.9127 50.139C21.7797 49.9812 21.6052 49.815 21.5054 49.6322C21.7132 50.0061 21.5719 49.7153 21.5054 49.6239C21.4223 49.5075 21.3309 49.3912 21.2478 49.2749C20.7409 48.5686 20.2755 47.8207 19.86 47.0562C19.6522 46.6739 19.4528 46.2834 19.2617 45.8846C19.1702 45.6851 19.0788 45.4857 18.9874 45.2863C18.8295 44.929 19.1287 45.6353 18.9874 45.278C18.9292 45.145 18.8794 45.0038 18.8212 44.8708C18.4888 44.0066 18.2145 43.1175 17.9901 42.2118C17.8904 41.8129 17.8073 41.4058 17.7325 40.9986C17.691 40.7742 17.6577 40.5499 17.6245 40.3255C17.6162 40.284 17.6162 40.2508 17.6079 40.2092C17.5829 40.0264 17.5829 40.0596 17.6245 40.3089C17.5663 40.2009 17.5829 39.9765 17.5746 39.8519C17.4749 38.888 17.4334 37.924 17.4583 36.9519C17.4666 36.4866 17.4998 36.0296 17.5414 35.5642C17.558 35.3399 17.5913 35.1072 17.6162 34.8829C17.6577 34.484 17.558 35.2734 17.6162 34.8745C17.6411 34.725 17.6577 34.5754 17.6827 34.4258C17.8323 33.5367 18.0317 32.6642 18.2893 31.8001C18.414 31.3763 18.5553 30.9525 18.7048 30.5371C18.7796 30.3293 18.8628 30.1216 18.9458 29.9139C18.9957 29.7975 19.0373 29.4901 18.9458 29.9055C18.9791 29.7726 19.0705 29.623 19.1204 29.4984C19.4777 28.7007 19.8932 27.9195 20.342 27.1718C20.5664 26.7979 20.8074 26.4323 21.0567 26.075C21.1813 25.8922 21.306 25.7177 21.4389 25.5432C21.4888 25.4767 21.5636 25.3188 21.6384 25.2856C21.4888 25.4767 21.4722 25.5016 21.5802 25.3604C21.6218 25.3022 21.6716 25.244 21.7132 25.1859C22.2783 24.4796 22.8932 23.8065 23.5414 23.175C23.8406 22.8842 24.1481 22.6017 24.4639 22.3275C24.6135 22.1945 24.763 22.0699 24.9209 21.9453C25.004 21.8788 25.0872 21.8123 25.1786 21.7375C25.2367 21.696 25.2949 21.6461 25.3531 21.6046C25.1619 21.7541 25.137 21.7708 25.2783 21.6627C26.0096 21.1226 26.7658 20.6157 27.5553 20.167C27.9375 19.951 28.3198 19.7432 28.7187 19.5521C28.9181 19.4524 29.1176 19.361 29.317 19.2696C29.4168 19.2197 29.5165 19.1782 29.6162 19.1367C29.6827 19.1034 29.7492 19.0785 29.8157 19.0452C29.5913 19.145 29.558 19.1533 29.7243 19.0868C30.5553 18.7627 31.3864 18.4636 32.2506 18.2392C32.6827 18.1229 33.1232 18.0232 33.5636 17.9318C33.788 17.8902 34.0041 17.8487 34.2285 17.8072C34.3365 17.7905 34.4528 17.7739 34.5609 17.749C34.6357 17.7407 34.7105 17.7241 34.7853 17.7157C34.9681 17.6908 34.9349 17.6908 34.6855 17.7324C34.8518 17.6493 35.1842 17.6742 35.367 17.6576C35.5997 17.6327 35.8241 17.616 36.0568 17.5994C36.5221 17.5662 36.9875 17.5579 37.4529 17.5579C36.8961 17.0011 36.3476 16.4527 35.7907 15.8959V21.1059V29.4653V31.3764C35.7907 32.2489 36.5553 33.0798 37.4529 33.0384C38.3505 32.9969 39.115 32.3071 39.115 31.3764V26.1664V17.8071V15.8959C39.115 14.9985 38.3505 14.2339 37.4529 14.2339C33.3892 14.2423 29.3586 15.3059 25.835 17.3333C22.4029 19.2694 19.4942 22.1361 17.4582 25.5097C15.364 28.9748 14.2255 32.9964 14.1424 37.0349C14.0593 41.1231 15.0732 45.2113 17.0511 48.7845C18.9541 52.2246 21.7547 55.1577 25.0789 57.2518C28.4945 59.404 32.4835 60.6089 36.5139 60.7833C40.6109 60.9578 44.7245 60.0022 48.3479 58.0994C51.8299 56.2713 54.805 53.5125 56.9657 50.2303C59.1846 46.8567 60.4561 42.9097 60.7053 38.888C61.0045 34.1351 59.7829 29.2741 57.2648 25.2274C56.6332 24.2136 55.9185 23.258 55.1539 22.3439C54.5888 21.6792 53.3755 21.7207 52.802 22.3439C52.1455 23.0752 52.1953 23.9976 52.802 24.7121L52.8022 24.7122Z" fill="#4F46E5"></path>
<path d="M41.942 37.5089C41.942 37.6668 41.9337 37.8163 41.9253 37.9742C41.917 38.0324 41.917 38.0906 41.9087 38.1487C41.8921 38.3814 41.9669 37.8163 41.9253 38.049C41.8755 38.3232 41.8173 38.5974 41.7342 38.8716C41.6927 39.0129 41.6428 39.1542 41.5929 39.2954C41.4932 39.5696 41.7342 39.0129 41.5597 39.3536C41.4267 39.6112 41.2855 39.8688 41.1275 40.1098C41.0943 40.1513 41.0611 40.2012 41.0361 40.2427C40.8616 40.5086 41.1026 40.1679 41.1026 40.1679C41.1026 40.2344 40.9115 40.4006 40.8533 40.4588C40.6622 40.6748 40.4461 40.8742 40.23 41.0654C39.9225 41.3313 40.4212 40.949 40.1802 41.1069C40.0555 41.19 39.9392 41.2731 39.8145 41.3479C39.7065 41.4143 39.5901 41.4808 39.4821 41.539L39.2827 41.6387C39.2494 41.6553 39.2162 41.6719 39.1829 41.6886C39.0666 41.7384 39.1164 41.7218 39.3242 41.6304C39.2494 41.755 38.7259 41.8381 38.5846 41.8797C38.4599 41.9129 38.327 41.9461 38.2023 41.9711C38.1275 41.9877 38.0527 41.996 37.9779 42.0126C37.7619 42.0542 38.4018 41.9794 38.0195 42.0043C37.7452 42.0209 37.4793 42.0375 37.2051 42.0292C37.0721 42.0209 36.881 41.9711 36.748 41.996C36.748 41.996 37.0887 42.0542 36.9059 42.0209C36.8145 42.0043 36.7231 41.9877 36.6233 41.9711C36.3491 41.9129 36.0832 41.8381 35.8172 41.7467C35.7674 41.7301 35.7175 41.7052 35.6593 41.6885C35.3602 41.5805 35.7507 41.7301 35.7507 41.7301C35.7175 41.755 35.41 41.5639 35.3602 41.539C35.1192 41.406 34.9031 41.2481 34.6704 41.1069C34.5125 41.0072 34.8034 41.1983 34.7867 41.1983C34.7618 41.1983 34.6455 41.082 34.6205 41.057C34.4959 40.949 34.3795 40.841 34.2632 40.7246C34.1718 40.6332 34.0887 40.5418 34.0056 40.4504C33.9391 40.3756 33.7562 40.0765 33.856 40.2842C33.9723 40.5086 33.7729 40.1596 33.7313 40.1014C33.6399 39.9685 33.5568 39.8272 33.4737 39.6776C33.4155 39.5613 33.3574 39.4533 33.2992 39.337C33.1496 39.0544 33.3324 39.4284 33.3324 39.4284C33.3075 39.4117 33.2576 39.2289 33.2493 39.2206C33.1496 38.9547 33.0748 38.6888 33.0166 38.4146C33 38.3398 32.9834 38.265 32.9751 38.1902C32.9585 38.1155 32.9668 37.8828 32.9585 38.1321C32.9585 38.3814 32.9502 37.9825 32.9418 37.8994C32.9252 37.592 32.9335 37.2845 32.9585 36.9688C32.9834 36.6613 32.892 37.3261 32.9668 36.9023C32.9917 36.7693 33.0166 36.6447 33.0499 36.5201C33.0914 36.3622 33.1828 35.7556 33.3241 35.6725C33.3241 35.6725 33.1413 36.0464 33.2909 35.7639C33.3158 35.7141 33.3407 35.6642 33.3657 35.6143C33.4238 35.498 33.482 35.39 33.5485 35.2736C33.6233 35.149 33.6981 35.0244 33.7812 34.908C33.7978 34.8831 33.8975 34.7336 33.9058 34.7336C33.8892 34.7336 33.6732 35.0078 33.8477 34.8083C34.0305 34.6006 34.205 34.4012 34.4045 34.2184C34.4959 34.1353 34.5956 34.0522 34.687 33.9691C34.8782 33.8029 34.6122 34.0106 34.6122 34.0273C34.6122 34.0023 34.7701 33.9192 34.7867 33.9026C35.0111 33.7447 35.2521 33.6118 35.4931 33.4871C35.5596 33.4539 35.6261 33.429 35.6926 33.3957C35.8588 33.3043 35.543 33.4705 35.5513 33.4539C35.5845 33.3874 35.9502 33.3043 36.0167 33.2877C36.2826 33.2046 36.5568 33.1464 36.8394 33.0883C37.1386 33.0301 36.482 33.1215 36.9059 33.08C37.0638 33.0633 37.2134 33.0633 37.3713 33.055C37.5707 33.055 37.7618 33.0633 37.9613 33.08C37.9945 33.08 38.2272 33.1049 38.0028 33.08C37.7535 33.055 38.1192 33.1049 38.1691 33.1132C38.5264 33.1797 38.8671 33.296 39.2162 33.4124C39.4405 33.4871 38.9585 33.2794 39.1663 33.3957C39.2577 33.4456 39.3574 33.4871 39.4488 33.537C39.5984 33.6118 39.7397 33.7032 39.881 33.7863C39.9475 33.8278 40.0223 33.8777 40.0888 33.9275C40.1303 33.9525 40.4045 34.1768 40.2217 34.0189C40.0638 33.8777 40.2217 34.0189 40.2467 34.0439C40.3214 34.1103 40.4046 34.1851 40.4793 34.2516C40.6123 34.3762 40.7453 34.5175 40.8699 34.6588C40.9115 34.7086 40.953 34.7585 40.9946 34.8C41.1275 34.9413 40.845 34.5674 41.0195 34.8333C41.2273 35.149 41.4018 35.4731 41.5846 35.8055C41.701 36.0215 41.5015 35.5479 41.5763 35.7805C41.6095 35.8886 41.6511 35.9883 41.6926 36.0963C41.7508 36.2708 41.7924 36.4453 41.8339 36.6198C41.8505 36.7112 41.8672 36.7943 41.8921 36.8857C41.9336 37.0851 41.942 36.9771 41.8921 36.8524C41.9752 36.9937 41.942 37.3178 41.942 37.5089C41.9503 38.3814 42.6982 39.2123 43.6041 39.1709C44.4933 39.1293 45.2745 38.4396 45.2663 37.5089C45.2247 33.9109 42.6651 30.554 39.0667 29.8643C35.8423 29.2411 32.5763 30.5872 30.8063 33.3792C29.1692 35.9551 29.2356 39.5282 31.0556 42.0044C32.9669 44.6053 36.1998 45.8766 39.366 45.0956C42.8148 44.248 45.2414 41.0323 45.2747 37.509C45.283 36.6365 44.5018 35.8056 43.6126 35.8471C42.6984 35.8886 41.9504 36.5783 41.9422 37.509L41.942 37.5089Z" fill="#4F46E5"></path>
</svg><style>@media (prefers-color-scheme: light) { :root { filter: none; } }
@media (prefers-color-scheme: dark) { :root { filter: contrast(0.8333333333333334) brightness(1.7); } }
</style></svg>