<svg width="485" height="112" viewBox="0 0 485 112" fill="none" xmlns="http://www.w3.org/2000/svg">
<g clip-path="url(#clip0_443_29)">
<path d="M87.3711 31.9407C87.7101 32.3395 88.0392 32.7583 88.3683 33.1672C88.6974 33.586 88.119 32.8381 88.4481 33.2669C88.5079 33.3466 88.5778 33.4364 88.6376 33.5162C88.8271 33.7654 89.0165 34.0247 89.196 34.2839C89.8143 35.1415 90.3927 36.0289 90.9512 36.9263C91.5296 37.8736 92.0781 38.8508 92.5767 39.8478C92.816 40.3264 93.0554 40.8051 93.2748 41.2837C93.3845 41.523 93.4942 41.7723 93.6039 42.0116C93.6438 42.1113 93.6936 42.211 93.7335 42.3107C93.8233 42.5201 93.8133 42.5102 93.7235 42.2808C93.7535 42.3506 93.7834 42.4304 93.8133 42.5002C94.651 44.5443 95.3391 46.6583 95.8476 48.812C96.1069 49.9088 96.3263 51.0056 96.4958 52.1224C96.5357 52.3917 96.5756 52.6708 96.6155 52.9401C96.5557 52.4914 96.6055 52.8703 96.6155 52.9899C96.6354 53.1295 96.6454 53.2691 96.6654 53.3988C96.7352 54.007 96.795 54.6153 96.8349 55.2334C96.9845 57.3175 96.9745 59.4114 96.8249 61.4854C96.795 61.9241 96.7551 62.3529 96.7052 62.7916C96.6853 63.021 96.6554 63.2503 96.6255 63.4797C96.6155 63.5893 96.5956 63.709 96.5856 63.8187C96.5257 64.2973 96.6554 63.35 96.5856 63.8287C96.446 64.7759 96.2864 65.7132 96.087 66.6406C95.708 68.4354 95.2194 70.2103 94.611 71.9353C94.4614 72.3541 94.3119 72.7729 94.1523 73.1818C94.0825 73.3712 94.0127 73.5507 93.9329 73.7401C93.893 73.8399 93.8531 73.9495 93.8132 74.0493C93.7833 74.129 93.7434 74.2088 93.7135 74.2985C93.7434 74.2188 93.7833 74.139 93.8132 74.0692C93.7035 74.478 93.4542 74.8968 93.2747 75.2757C93.0753 75.7145 92.8659 76.1532 92.6465 76.582C91.8387 78.1874 90.9312 79.7329 89.934 81.2286C89.4353 81.9664 88.9068 82.6844 88.3683 83.4023C88.1988 83.6317 88.6775 83.0134 88.3982 83.3624C88.3484 83.4322 88.2885 83.502 88.2387 83.5718C88.0991 83.7413 87.9694 83.9109 87.8298 84.0804C87.5306 84.4493 87.2215 84.8183 86.9024 85.1772C85.7256 86.5233 84.4691 87.7897 83.1428 88.9763C82.4647 89.5845 81.7566 90.1629 81.0386 90.7312C80.9389 90.811 80.8093 90.9805 81.1284 90.6614C81.0486 90.7312 80.9489 90.7911 80.8691 90.8609C80.6996 90.9905 80.5201 91.1201 80.3406 91.2498C79.9716 91.519 79.6026 91.7882 79.2237 92.0475C77.7477 93.0645 76.2021 93.9818 74.6065 94.8094C73.7887 95.2282 72.9511 95.6271 72.1033 95.996C72.0235 96.0359 71.9438 96.0658 71.864 96.1057C71.4352 96.2952 72.2828 95.9362 71.854 96.1057C71.6446 96.1855 71.4451 96.2752 71.2357 96.355C70.8269 96.5145 70.408 96.6741 69.9892 96.8236C68.264 97.4419 66.4988 97.9504 64.7137 98.3493C63.7863 98.5586 62.8488 98.7282 61.9115 98.8678C61.7619 98.8877 61.014 98.9775 61.6323 98.9077C61.4029 98.9276 61.1735 98.9675 60.9541 98.9874C60.4755 99.0473 59.9968 99.0871 59.5081 99.127C57.6035 99.2866 55.6888 99.3165 53.7839 99.2168C52.8365 99.1669 51.8991 99.0971 50.9616 98.9874C50.7422 98.9575 50.4929 98.9575 50.2835 98.9077C50.8719 99.0672 50.1439 98.8877 50.0043 98.8678C49.5356 98.798 49.0669 98.7182 48.5982 98.6285C46.7633 98.2894 44.9582 97.8308 43.1832 97.2524C42.3355 96.9732 41.5078 96.6741 40.68 96.355C40.4706 96.2752 40.2712 96.1855 40.0618 96.1057C39.6429 95.9362 40.3809 96.2453 40.1116 96.1257C40.0119 96.0758 39.9122 96.0359 39.8124 95.996C39.3637 95.8066 38.9249 95.5972 38.4861 95.3878C36.8606 94.61 35.2949 93.7425 33.7792 92.7653C33.0413 92.2966 32.3233 91.7981 31.6152 91.2895C31.4357 91.1599 31.2662 91.0303 31.0867 90.9006C30.987 90.8209 30.8673 90.7511 30.7776 90.6613C30.8075 90.6913 31.1465 90.9505 30.8673 90.7311C30.4884 90.432 30.1194 90.1329 29.7504 89.8237C28.3842 88.677 27.0877 87.4505 25.8712 86.1443C25.2629 85.4862 24.6745 84.8181 24.1061 84.13C23.9864 83.9805 23.8568 83.8309 23.7371 83.6714C23.6573 83.5716 23.5776 83.462 23.4978 83.3623C23.2784 83.093 23.5377 83.4221 23.5676 83.452C23.2385 83.1229 22.9792 82.6742 22.71 82.2953C21.6629 80.8395 20.7154 79.3138 19.8578 77.7385C19.429 76.9507 19.0201 76.143 18.6412 75.3255C18.4517 74.9266 18.2821 74.5178 18.1026 74.1189C17.983 73.8497 18.2921 74.5876 18.1226 74.1688C18.0927 74.089 18.0528 74.0092 18.0229 73.9195C17.9231 73.6702 17.8234 73.4309 17.7337 73.1816C17.0755 71.4765 16.527 69.7315 16.0982 67.9467C15.8688 67.0293 15.6793 66.092 15.5198 65.1646C15.45 64.7359 15.3802 64.3071 15.3203 63.8883C15.3004 63.7387 15.2007 63.4595 15.3303 63.9481C15.3004 63.8385 15.3004 63.7188 15.2904 63.6091C15.2605 63.3598 15.2306 63.1105 15.2007 62.8613C15.0012 60.9666 14.9214 59.0622 14.9713 57.1577C15.0012 56.1805 15.0511 55.2133 15.1408 54.246C15.1807 53.7874 15.2306 53.3287 15.2904 52.88C15.3004 52.7902 15.3203 52.7005 15.3303 52.6107C15.2705 53.1891 15.3203 52.7105 15.3303 52.6008C15.3602 52.3714 15.4001 52.1521 15.43 51.9227C15.7292 50.078 16.148 48.2533 16.6865 46.4584C16.9458 45.5809 17.235 44.7234 17.5541 43.8658C17.7037 43.447 17.8733 43.0382 18.0328 42.6294C18.0627 42.5496 18.1026 42.4698 18.1325 42.3801C18.312 41.9513 17.953 42.7989 18.1325 42.3701C18.2323 42.1507 18.322 41.9214 18.4217 41.702C19.1697 40.0368 20.0173 38.4215 20.9747 36.8759C21.4334 36.128 21.9121 35.4001 22.4107 34.6822C22.66 34.3232 22.9193 33.9743 23.1786 33.6252C23.3082 33.4557 23.4279 33.2563 23.5775 33.1067C23.2584 33.4358 23.4279 33.2962 23.5077 33.1965C23.6174 33.0569 23.7271 32.9272 23.8368 32.7876C24.9537 31.4016 26.1603 30.0755 27.4368 28.829C28.065 28.2208 28.7033 27.6325 29.3615 27.0641C29.6906 26.7849 30.0297 26.5057 30.3687 26.2265C30.5382 26.0869 30.7078 25.9573 30.8773 25.8177C31.2264 25.5385 30.5981 26.0171 30.8374 25.8476C30.9571 25.7578 31.0768 25.6581 31.2064 25.5684C32.6424 24.4915 34.1383 23.5044 35.6939 22.6168C36.4518 22.1781 37.2297 21.7692 38.0175 21.3804C38.4164 21.1909 38.8153 21.0015 39.2141 20.812C39.4136 20.7223 39.613 20.6325 39.8225 20.5428C39.9421 20.4929 40.0618 20.4131 40.1914 20.3832C40.1116 20.4131 40.0319 20.453 39.9621 20.4829C40.0418 20.453 40.1216 20.4131 40.2114 20.3832C41.8967 19.6952 43.632 19.1069 45.3971 18.6382C46.2847 18.3989 47.1922 18.1895 48.0898 18.0101C48.5086 17.9303 48.9374 17.8505 49.3563 17.7807C49.5756 17.7408 49.805 17.7109 50.0344 17.671C50.174 17.6511 50.3036 17.6312 50.4433 17.6112C50.9219 17.5414 49.9746 17.671 50.4532 17.6112C52.2881 17.3819 54.143 17.2622 55.9978 17.2622L54.0033 15.2679V18.7976V27.2832V37.6036V46.4881C54.0033 47.924 53.9634 49.3699 54.0033 50.8058V50.8656C54.0033 51.9126 54.9207 52.9097 55.9978 52.8599C57.075 52.8102 57.9924 51.9825 57.9924 50.8656V47.3358V38.8502V28.5298V19.6453C57.9924 18.2094 58.0323 16.7635 57.9924 15.3277V15.2679C57.9924 14.191 57.075 13.2735 55.9978 13.2735C48.1197 13.2835 40.3013 15.3576 33.4809 19.3062C26.9191 23.1052 21.3545 28.5794 17.4353 35.0708C13.3865 41.7715 11.1726 49.5292 11.013 57.3573C10.8535 65.2246 12.7881 73.0921 16.5876 79.9921C20.2474 86.633 25.6226 92.2966 32.0248 96.355C38.6464 100.553 46.3552 102.906 54.1844 103.235C62.0525 103.564 69.9407 101.769 76.911 98.1298C83.6323 94.6099 89.3965 89.345 93.585 83.0332C97.9129 76.5119 100.416 68.874 100.915 61.0767C101.503 51.8633 99.1695 42.4897 94.3029 34.6422C93.0962 32.6978 91.7399 30.8629 90.2641 29.118C89.586 28.3203 88.1301 28.3702 87.4419 29.118C86.5942 29.9656 86.654 31.0823 87.3721 31.94L87.3711 31.9407Z" fill="#4F46E5"/>
<path d="M74.3662 42.9281C74.5656 43.1674 74.7651 43.4167 74.9645 43.656C74.6653 43.2771 74.9944 43.6859 75.0343 43.7557C75.1241 43.8853 75.2238 44.005 75.3135 44.1346C75.7124 44.693 76.0914 45.2614 76.4404 45.8496C76.7695 46.3881 77.0787 46.9465 77.3678 47.5149C77.5075 47.794 77.6471 48.0832 77.7867 48.3724C77.8565 48.512 77.9163 48.6615 77.9861 48.8111C78.026 48.9108 78.0759 49.0105 78.1158 49.1003C78.0161 48.8709 78.0161 48.861 78.0958 49.0704C78.5645 50.2769 78.9734 51.4934 79.2726 52.7498C79.4222 53.388 79.5518 54.0262 79.6615 54.6743C79.6914 54.8339 79.7213 55.0034 79.7313 55.1629C79.6815 54.6544 79.7313 55.2128 79.7413 55.2926C79.7812 55.6815 79.8211 56.0604 79.851 56.4493C79.9407 57.7156 79.9407 58.982 79.841 60.2483C79.8211 60.5275 79.7911 60.7968 79.7712 61.076C79.7612 61.2156 79.7413 61.3452 79.7213 61.4848C79.6815 61.8537 79.7413 61.405 79.7413 61.3651C79.7712 61.6044 79.6615 61.9335 79.6116 62.1728C79.5618 62.4819 79.5019 62.791 79.4321 63.1101C79.2028 64.207 78.9036 65.2839 78.5346 66.3409C78.4449 66.5901 78.3551 66.8394 78.2554 67.0887C78.2055 67.2084 78.1557 67.338 78.1058 67.4577C78.046 67.5972 77.9961 67.9662 78.1058 67.4676C77.9961 67.9861 77.6172 68.5545 77.3778 69.0231C76.8991 69.9604 76.3706 70.8678 75.7922 71.7353C75.6426 71.9547 75.493 72.1641 75.3435 72.3835C75.2238 72.553 75.0543 72.9119 74.8748 73.0117C74.9246 72.9419 74.9745 72.882 75.0243 72.8122C74.9745 72.882 74.9146 72.9518 74.8648 73.0216C74.785 73.1213 74.7052 73.2211 74.6155 73.3307C74.426 73.57 74.2265 73.7994 74.0271 74.0287C73.339 74.8164 72.601 75.5543 71.8232 76.2523C71.4343 76.6013 71.0354 76.9403 70.6265 77.2594C70.5966 77.2893 70.5567 77.3092 70.5268 77.3391C70.3572 77.4688 70.3871 77.4488 70.6165 77.2693C70.5666 77.3491 70.3772 77.4488 70.3074 77.5086C70.0581 77.6881 69.8087 77.8676 69.5594 78.0371C68.6619 78.6553 67.7146 79.2137 66.7472 79.7123C66.2785 79.9516 65.7998 80.1809 65.3211 80.3904C65.2812 80.4103 65.2414 80.4302 65.2015 80.4402C65.002 80.5299 65.0419 80.51 65.3112 80.3904C65.2713 80.4302 65.1017 80.4801 65.0618 80.4901C64.7727 80.6097 64.4834 80.7194 64.1942 80.8191C63.1471 81.198 62.0702 81.5071 60.9832 81.7464C60.4547 81.8661 59.9161 81.9658 59.3876 82.0456C59.2679 82.0655 59.1084 82.1154 58.9787 82.1054C59.4774 82.1453 59.1383 82.0855 58.9688 82.1054C58.6496 82.1453 58.3305 82.1752 58.0114 82.1952C56.8945 82.2849 55.7776 82.3048 54.6607 82.245C54.1122 82.2151 53.5537 82.1752 53.0053 82.1154C52.8956 82.1054 52.6861 82.1154 52.5964 82.0655C52.6861 82.0755 52.7659 82.0855 52.8557 82.1054C52.7659 82.0954 52.6762 82.0755 52.5864 82.0655C52.2773 82.0157 51.9582 81.9658 51.649 81.906C50.552 81.6966 49.4551 81.4274 48.398 81.0784C47.9393 80.9288 47.4706 80.7593 47.0218 80.5898C46.9022 80.5399 46.7725 80.49 46.6529 80.4402C46.2141 80.2707 47.0717 80.6297 46.6429 80.4402C46.3637 80.3205 46.0844 80.1909 45.8052 80.0613C44.8179 79.5926 43.8606 79.0542 42.9331 78.4659C42.4943 78.1867 42.0655 77.8875 41.6367 77.5784C41.527 77.4987 41.4273 77.4189 41.3176 77.3491C40.9486 77.0799 41.6666 77.6283 41.3076 77.3391C41.1082 77.1796 40.8987 77.0101 40.6993 76.8505C39.8616 76.1525 39.0738 75.4047 38.3358 74.6169C37.9768 74.238 37.6378 73.8392 37.2987 73.4403C37.1391 73.2509 36.9297 73.0515 36.81 72.8321C37.0594 73.2808 36.8898 72.9318 36.81 72.8221C36.7103 72.6825 36.6006 72.5429 36.5009 72.4033C35.8926 71.5558 35.3341 70.6583 34.8355 69.7409C34.5862 69.2822 34.3469 68.8136 34.1175 68.335C34.0078 68.0956 33.8981 67.8563 33.7884 67.617C33.5989 67.1882 33.9579 68.0358 33.7884 67.607C33.7186 67.4475 33.6588 67.278 33.5889 67.1184C33.1901 66.0814 32.861 65.0145 32.5917 63.9276C32.472 63.449 32.3723 62.9604 32.2826 62.4718C32.2327 62.2026 32.1928 61.9334 32.1529 61.6641C32.1429 61.6143 32.1429 61.5744 32.133 61.5245C32.1031 61.3052 32.1031 61.3451 32.1529 61.6442C32.0831 61.5146 32.103 61.2453 32.0931 61.0958C31.9734 59.9391 31.9235 58.7823 31.9535 57.6158C31.9634 57.0574 32.0033 56.509 32.0532 55.9506C32.0731 55.6813 32.113 55.4021 32.1429 55.1329C32.1928 54.6543 32.0731 55.6016 32.1429 55.1229C32.1729 54.9435 32.1928 54.764 32.2227 54.5845C32.4022 53.5176 32.6416 52.4705 32.9507 51.4336C33.1003 50.9251 33.2698 50.4165 33.4493 49.918C33.5391 49.6687 33.6388 49.4194 33.7385 49.1701C33.7984 49.0305 33.8482 48.6616 33.7385 49.1601C33.7784 49.0006 33.8881 48.8211 33.9479 48.6715C34.3768 47.7143 34.8754 46.7769 35.4139 45.8797C35.6832 45.431 35.9724 44.9922 36.2715 44.5634C36.4211 44.3441 36.5707 44.1347 36.7302 43.9253C36.7901 43.8455 36.8798 43.656 36.9696 43.6162C36.7901 43.8455 36.7701 43.8754 36.8998 43.7059C36.9496 43.6361 37.0095 43.5663 37.0593 43.4965C37.7375 42.649 38.4754 41.8413 39.2532 41.0835C39.6122 40.7345 39.9812 40.3955 40.3602 40.0665C40.5397 39.9069 40.7192 39.7574 40.9086 39.6078C41.0084 39.528 41.1081 39.4482 41.2178 39.3585C41.2876 39.3086 41.3574 39.2488 41.4272 39.199C41.1978 39.3784 41.1679 39.3984 41.3374 39.2688C42.215 38.6206 43.1225 38.0124 44.0698 37.4739C44.5285 37.2147 44.9873 36.9654 45.466 36.736C45.7053 36.6164 45.9446 36.5067 46.184 36.397C46.3036 36.3372 46.4233 36.2873 46.543 36.2375C46.6228 36.1976 46.7025 36.1677 46.7823 36.1278C46.5131 36.2474 46.4732 36.2574 46.6726 36.1776C47.6699 35.7888 48.6672 35.4298 49.7042 35.1606C50.2228 35.021 50.7513 34.9013 51.2799 34.7916C51.5491 34.7418 51.8084 34.6919 52.0777 34.6421C52.2073 34.6221 52.3469 34.6022 52.4766 34.5723C52.5663 34.5623 52.6561 34.5424 52.7458 34.5324C52.9652 34.5025 52.9253 34.5025 52.6262 34.5523C52.8256 34.4526 53.2245 34.4825 53.4439 34.4626C53.7231 34.4327 53.9924 34.4127 54.2716 34.3928C54.8301 34.3529 55.3885 34.3429 55.947 34.3429C55.2788 33.6748 54.6207 33.0167 53.9524 32.3486V38.6006V48.6318V50.9252C53.9524 51.9722 54.8699 52.9693 55.947 52.9195C57.0241 52.8697 57.9416 52.042 57.9416 50.9252V44.6732V34.642V32.3486C57.9416 31.2717 57.0241 30.3542 55.947 30.3542C51.0705 30.3642 46.2338 31.6405 42.0056 34.0734C37.8869 36.3967 34.3965 39.8368 31.9534 43.8851C29.4404 48.0432 28.0742 52.8692 27.9744 57.7154C27.8747 62.6213 29.0913 67.5271 31.4648 71.8148C33.7484 75.943 37.1092 79.4628 41.0982 81.9757C45.1969 84.5582 49.9837 86.0041 54.8202 86.2134C59.7366 86.4228 64.6729 85.2761 69.021 82.9927C73.1994 80.7991 76.7695 77.4885 79.3624 73.5499C82.0251 69.5016 83.5508 64.7651 83.8499 59.9391C84.2089 54.2356 82.743 48.4024 79.7212 43.5463C78.9634 42.3298 78.1057 41.1831 77.1882 40.0862C76.51 39.2885 75.0541 39.3384 74.3659 40.0862C73.5781 40.9637 73.6379 42.0705 74.3659 42.9281L74.3662 42.9281Z" fill="#4F46E5"/>
<path d="M61.3337 58.2841C61.3337 58.4736 61.3237 58.653 61.3137 58.8425C61.3038 58.9123 61.3038 58.9821 61.2938 59.0519C61.2738 59.3311 61.3636 58.6531 61.3137 58.9322C61.2539 59.2613 61.1841 59.5904 61.0844 59.9194C61.0345 60.0889 60.9747 60.2584 60.9148 60.428C60.7952 60.757 61.0844 60.0889 60.875 60.4978C60.7154 60.8069 60.5459 61.116 60.3564 61.4052C60.3165 61.455 60.2766 61.5148 60.2467 61.5647C60.0373 61.8838 60.3265 61.475 60.3265 61.475C60.3265 61.5547 60.0971 61.7541 60.0273 61.824C59.7979 62.0832 59.5386 62.3225 59.2794 62.5519C58.9104 62.8709 59.5087 62.4123 59.2195 62.6017C59.0699 62.7014 58.9303 62.8012 58.7807 62.8909C58.6511 62.9707 58.5115 63.0504 58.3818 63.1202L58.1425 63.2399C58.1026 63.2598 58.0627 63.2798 58.0228 63.2997C57.8832 63.3595 57.9431 63.3396 58.1924 63.2299C58.1026 63.3795 57.4744 63.4792 57.3048 63.529C57.1552 63.5689 56.9957 63.6088 56.8461 63.6387C56.7563 63.6587 56.6666 63.6686 56.5768 63.6886C56.3175 63.7384 57.0854 63.6487 56.6267 63.6786C56.2976 63.6985 55.9785 63.7185 55.6494 63.7085C55.4898 63.6985 55.2605 63.6387 55.1009 63.6686C55.1009 63.6686 55.5098 63.7384 55.2904 63.6985C55.1807 63.6786 55.071 63.6587 54.9513 63.6387C54.6222 63.5689 54.3031 63.4792 53.984 63.3695C53.9242 63.3495 53.8643 63.3196 53.7945 63.2997C53.4355 63.1701 53.9042 63.3495 53.9042 63.3495C53.8643 63.3795 53.4953 63.1501 53.4355 63.1202C53.1463 62.9607 52.887 62.7712 52.6078 62.6017C52.4183 62.482 52.7674 62.7114 52.7474 62.7114C52.7175 62.7114 52.5779 62.5718 52.548 62.5419C52.3984 62.4122 52.2588 62.2826 52.1191 62.143C52.0094 62.0333 51.9097 61.9236 51.81 61.814C51.7302 61.7242 51.5108 61.3653 51.6305 61.6145C51.7701 61.8838 51.5308 61.465 51.4809 61.3952C51.3712 61.2356 51.2715 61.0661 51.1718 60.8866C51.102 60.747 51.0321 60.6174 50.9623 60.4778C50.7828 60.1388 51.0022 60.5875 51.0022 60.5875C50.9723 60.5675 50.9125 60.3482 50.9025 60.3382C50.7828 60.0191 50.6931 59.7 50.6233 59.371C50.6033 59.2812 50.5834 59.1915 50.5734 59.1017C50.5535 59.012 50.5635 58.7328 50.5535 59.0319C50.5535 59.3311 50.5435 58.8525 50.5335 58.7527C50.5136 58.3838 50.5236 58.0149 50.5535 57.636C50.5834 57.267 50.4737 58.0647 50.5635 57.5562C50.5934 57.3966 50.6233 57.2471 50.6632 57.0975C50.713 56.9081 50.8227 56.1802 50.9923 56.0804C50.9923 56.0804 50.7729 56.5291 50.9524 56.1901C50.9823 56.1303 51.0122 56.0705 51.0421 56.0106C51.1119 55.871 51.1817 55.7414 51.2615 55.6018C51.3513 55.4522 51.441 55.3027 51.5407 55.1631C51.5607 55.1332 51.6804 54.9537 51.6903 54.9537C51.6704 54.9537 51.4111 55.2828 51.6205 55.0434C51.8399 54.7942 52.0493 54.5548 52.2887 54.3355C52.3984 54.2358 52.518 54.136 52.6277 54.0363C52.8571 53.8369 52.538 54.0862 52.538 54.1061C52.538 54.0762 52.7275 53.9765 52.7474 53.9566C53.0167 53.7671 53.3059 53.6076 53.5951 53.458C53.6748 53.4181 53.7546 53.3882 53.8344 53.3483C54.0338 53.2386 53.6549 53.4381 53.6649 53.4181C53.7047 53.3383 54.1435 53.2386 54.2233 53.2187C54.5424 53.119 54.8715 53.0492 55.2106 52.9794C55.5696 52.9096 54.7818 53.0193 55.2904 52.9694C55.4799 52.9495 55.6593 52.9495 55.8488 52.9395C56.0882 52.9395 56.3175 52.9495 56.5569 52.9694C56.5968 52.9694 56.876 52.9993 56.6067 52.9694C56.3076 52.9395 56.7463 52.9993 56.8062 53.0093C57.235 53.0891 57.6439 53.2286 58.0627 53.3683C58.332 53.458 57.7536 53.2087 58.0029 53.3483C58.1126 53.4081 58.2322 53.458 58.3419 53.5178C58.5214 53.6076 58.691 53.7173 58.8605 53.817C58.9403 53.8668 59.03 53.9267 59.1098 53.9865C59.1597 54.0164 59.4888 54.2856 59.2694 54.0962C59.0799 53.9267 59.2694 54.0962 59.2993 54.1261C59.3891 54.2058 59.4888 54.2956 59.5785 54.3754C59.7381 54.5249 59.8976 54.6944 60.0472 54.864C60.0971 54.9238 60.1469 54.9836 60.1968 55.0335C60.3564 55.203 60.0173 54.7543 60.2267 55.0734C60.476 55.4523 60.6855 55.8411 60.9049 56.24C61.0445 56.4993 60.8051 55.9309 60.8949 56.2101C60.9348 56.3397 60.9846 56.4594 61.0345 56.589C61.1043 56.7984 61.1542 57.0078 61.204 57.2172C61.224 57.3269 61.2439 57.4266 61.2738 57.5363C61.3237 57.7756 61.3337 57.6459 61.2738 57.4964C61.3736 57.6659 61.3337 58.0548 61.3337 58.2841C61.3436 59.3311 62.2412 60.3282 63.3283 60.2785C64.3953 60.2286 65.3327 59.401 65.3228 58.2841C65.273 53.9665 62.2015 49.9382 57.8834 49.1106C54.014 48.3627 50.0949 49.9781 47.9709 53.3285C46.0064 56.4196 46.0861 60.7073 48.27 63.6788C50.5637 66.7998 54.443 68.3253 58.2425 67.3882C62.381 66.3711 65.293 62.5122 65.333 58.2843C65.3429 57.2373 64.4055 56.2402 63.3384 56.2899C62.2414 56.3398 61.3438 57.1674 61.334 58.2843L61.3337 58.2841Z" fill="#4F46E5"/>
<path d="M154.648 38.6364V49.5455H123.114V38.6364H154.648ZM130.273 26.0909H144.795V74.9091C144.795 76.25 145 77.2955 145.409 78.0455C145.818 78.7727 146.386 79.2841 147.114 79.5795C147.864 79.875 148.727 80.0227 149.705 80.0227C150.386 80.0227 151.068 79.9659 151.75 79.8523C152.432 79.7159 152.955 79.6136 153.318 79.5455L155.602 90.3523C154.875 90.5795 153.852 90.8409 152.534 91.1364C151.216 91.4545 149.614 91.6477 147.727 91.7159C144.227 91.8523 141.159 91.3864 138.523 90.3182C135.909 89.25 133.875 87.5909 132.42 85.3409C130.966 83.0909 130.25 80.25 130.273 76.8182V26.0909ZM164.108 91V38.6364H178.188V47.7727H178.733C179.688 44.5227 181.29 42.0682 183.54 40.4091C185.79 38.7273 188.381 37.8864 191.312 37.8864C192.04 37.8864 192.824 37.9318 193.665 38.0227C194.506 38.1136 195.244 38.2386 195.881 38.3977V51.2841C195.199 51.0795 194.256 50.8977 193.051 50.7386C191.847 50.5795 190.744 50.5 189.744 50.5C187.608 50.5 185.699 50.9659 184.017 51.8977C182.358 52.8068 181.04 54.0795 180.062 55.7159C179.108 57.3523 178.631 59.2386 178.631 61.375V91H164.108ZM216.821 91.9886C213.48 91.9886 210.503 91.4091 207.889 90.25C205.276 89.0682 203.207 87.3295 201.685 85.0341C200.185 82.7159 199.435 79.8295 199.435 76.375C199.435 73.4659 199.969 71.0227 201.037 69.0455C202.105 67.0682 203.56 65.4773 205.401 64.2727C207.241 63.0682 209.332 62.1591 211.673 61.5455C214.037 60.9318 216.514 60.5 219.105 60.25C222.151 59.9318 224.605 59.6364 226.469 59.3636C228.332 59.0682 229.685 58.6364 230.526 58.0682C231.366 57.5 231.787 56.6591 231.787 55.5455V55.3409C231.787 53.1818 231.105 51.5114 229.741 50.3295C228.401 49.1477 226.491 48.5568 224.014 48.5568C221.401 48.5568 219.321 49.1364 217.776 50.2955C216.23 51.4318 215.207 52.8636 214.707 54.5909L201.276 53.5C201.957 50.3182 203.298 47.5682 205.298 45.25C207.298 42.9091 209.878 41.1136 213.037 39.8636C216.219 38.5909 219.901 37.9545 224.082 37.9545C226.991 37.9545 229.776 38.2955 232.435 38.9773C235.116 39.6591 237.491 40.7159 239.56 42.1477C241.651 43.5795 243.298 45.4205 244.503 47.6705C245.707 49.8977 246.31 52.5682 246.31 55.6818V91H232.537V83.7386H232.128C231.287 85.375 230.162 86.8182 228.753 88.0682C227.344 89.2955 225.651 90.2614 223.673 90.9659C221.696 91.6477 219.412 91.9886 216.821 91.9886ZM220.98 81.9659C223.116 81.9659 225.003 81.5455 226.639 80.7045C228.276 79.8409 229.56 78.6818 230.491 77.2273C231.423 75.7727 231.889 74.125 231.889 72.2841V66.7273C231.435 67.0227 230.81 67.2955 230.014 67.5455C229.241 67.7727 228.366 67.9886 227.389 68.1932C226.412 68.375 225.435 68.5455 224.457 68.7045C223.48 68.8409 222.594 68.9659 221.798 69.0795C220.094 69.3295 218.605 69.7273 217.332 70.2727C216.06 70.8182 215.071 71.5568 214.366 72.4886C213.662 73.3977 213.31 74.5341 213.31 75.8977C213.31 77.875 214.026 79.3864 215.457 80.4318C216.912 81.4545 218.753 81.9659 220.98 81.9659ZM281.236 92.0227C275.872 92.0227 271.259 90.8864 267.395 88.6136C263.554 86.3182 260.599 83.1364 258.531 79.0682C256.486 75 255.463 70.3182 255.463 65.0227C255.463 59.6591 256.497 54.9545 258.565 50.9091C260.656 46.8409 263.622 43.6705 267.463 41.3977C271.304 39.1023 275.872 37.9545 281.168 37.9545C285.736 37.9545 289.736 38.7841 293.168 40.4432C296.599 42.1023 299.315 44.4318 301.315 47.4318C303.315 50.4318 304.418 53.9545 304.622 58H290.918C290.531 55.3864 289.509 53.2841 287.849 51.6932C286.213 50.0795 284.065 49.2727 281.406 49.2727C279.156 49.2727 277.19 49.8864 275.509 51.1136C273.849 52.3182 272.554 54.0795 271.622 56.3977C270.69 58.7159 270.224 61.5227 270.224 64.8182C270.224 68.1591 270.679 71 271.588 73.3409C272.52 75.6818 273.827 77.4659 275.509 78.6932C277.19 79.9205 279.156 80.5341 281.406 80.5341C283.065 80.5341 284.554 80.1932 285.872 79.5114C287.213 78.8295 288.315 77.8409 289.179 76.5455C290.065 75.2273 290.645 73.6477 290.918 71.8068H304.622C304.395 75.8068 303.304 79.3295 301.349 82.375C299.418 85.3977 296.747 87.7614 293.338 89.4659C289.929 91.1705 285.895 92.0227 281.236 92.0227ZM327.08 75.9318L327.114 58.5114H329.227L346 38.6364H362.67L340.136 64.9545H336.693L327.08 75.9318ZM313.92 91V21.1818H328.443V91H313.92ZM346.648 91L331.239 68.1932L340.92 57.9318L363.659 91H346.648ZM391.503 92.0227C386.116 92.0227 381.48 90.9318 377.594 88.75C373.73 86.5455 370.753 83.4318 368.662 79.4091C366.571 75.3636 365.526 70.5795 365.526 65.0568C365.526 59.6705 366.571 54.9432 368.662 50.875C370.753 46.8068 373.696 43.6364 377.491 41.3636C381.31 39.0909 385.787 37.9545 390.923 37.9545C394.378 37.9545 397.594 38.5114 400.571 39.625C403.571 40.7159 406.185 42.3636 408.412 44.5682C410.662 46.7727 412.412 49.5455 413.662 52.8864C414.912 56.2045 415.537 60.0909 415.537 64.5455V68.5341H371.321V59.5341H401.866C401.866 57.4432 401.412 55.5909 400.503 53.9773C399.594 52.3636 398.332 51.1023 396.719 50.1932C395.128 49.2614 393.276 48.7955 391.162 48.7955C388.957 48.7955 387.003 49.3068 385.298 50.3295C383.616 51.3295 382.298 52.6818 381.344 54.3864C380.389 56.0682 379.901 57.9432 379.878 60.0114V68.5682C379.878 71.1591 380.355 73.3977 381.31 75.2841C382.287 77.1705 383.662 78.625 385.435 79.6477C387.207 80.6705 389.31 81.1818 391.741 81.1818C393.355 81.1818 394.832 80.9545 396.173 80.5C397.514 80.0455 398.662 79.3636 399.616 78.4545C400.571 77.5455 401.298 76.4318 401.798 75.1136L415.23 76C414.548 79.2273 413.151 82.0455 411.037 84.4545C408.946 86.8409 406.241 88.7045 402.923 90.0455C399.628 91.3636 395.821 92.0227 391.503 92.0227ZM452.866 38.6364V49.5455H421.332V38.6364H452.866ZM428.491 26.0909H443.014V74.9091C443.014 76.25 443.219 77.2955 443.628 78.0455C444.037 78.7727 444.605 79.2841 445.332 79.5795C446.082 79.875 446.946 80.0227 447.923 80.0227C448.605 80.0227 449.287 79.9659 449.969 79.8523C450.651 79.7159 451.173 79.6136 451.537 79.5455L453.821 90.3523C453.094 90.5795 452.071 90.8409 450.753 91.1364C449.435 91.4545 447.832 91.6477 445.946 91.7159C442.446 91.8523 439.378 91.3864 436.741 90.3182C434.128 89.25 432.094 87.5909 430.639 85.3409C429.185 83.0909 428.469 80.25 428.491 76.8182V26.0909Z" fill="#1F2937"/>
</g>
<defs>
<clipPath id="clip0_443_29">
<rect width="485" height="112" fill="white"/>
</clipPath>
</defs>
</svg>
